<?xml version="1.0" encoding="utf-8"?>
<!-- Generator: Adobe Illustrator 23.0.5, SVG Export Plug-In . SVG Version: 6.00 Build 0) -->
<svg version="1.1" id="Layer_1" xmlns="http://www.w3.org/2000/svg" xmlns:xlink="http://www.w3.org/1999/xlink" x="0px" y="0px" width="1000px" height="1000px" viewBox="0 0 1000 1000" style="enable-background:new 0 0 1000 1000;" xml:space="preserve">
	<style type="text/css">
		#a-letter path{fill : #0088f7}
		#i-letter path{fill : #F7ca00}
	</style>
	<g id="a-letter">
		<path class="a-fill" d="M989.090271,987.0493164V1000H548.4074097v-12.9506836 c8.6339111,0,16.6721802-0.9229126,24.0853271-2.7687378c7.413147-1.8756714,13.8737793-8.3363037,19.4411011-19.4411011 c5.5375366-11.1346436,10.1817627-29.3251953,13.8737793-54.6312866 c3.7214966-25.2762451,6.1625977-61.3894653,7.413147-108.3099365c0-167.2582397,0-334.516449,0-501.7746887 c-0.1784058-3.5428467-0.3870239-7.0857239-0.6254272-10.5987854 c-1.1906128-19.6493225-2.8579712-38.6437683-4.9418945-56.9831543 c-2.4712524-21.5845795-6.7880249-40.7576447-12.9509888-57.4001923 c-6.1920776-16.6721497-14.7965698-29.9206543-25.9311523-39.8049316 c-5.5375366-4.9420471-11.8789673-8.6339035-18.9642944-11.1048355 c-13.605957-4.7338028-22.7163086-17.5356598-21.7932129-31.9155045v-0.178627 c1.0717773-16.4341125,15.0647583-29.0871429,31.5282593-28.4320679 c48.7067261,1.964859,93.15625,8.8719482,133.2885742,20.6914673 c48.1412354,14.2010422,89.4940186,36.4406967,124.0593872,66.6591873 c34.5352783,30.2779083,61.0919189,69.7554016,79.6099243,118.521698 c18.5179443,48.7660828,27.7769775,108.3097839,27.7769775,178.6606445v322.1611328 c0,54.3336182,1.5481567,96.2822266,4.6442261,125.9050293c3.0665894,29.652832,7.6813354,51.2374268,13.8741455,64.8133545 c6.1622314,13.6057739,12.9503174,21.2869263,20.3634644,23.1625977 C970.5718994,986.1264038,979.2061768,987.0493164,989.090271,987.0493164z" />
	</g>
	<g id="i-letter">
		<g class="i-base">
			<path class="i-fill" d="M357.1560059,560.9360352c-17.2972412,28.4022217-25.9311523,69.7553711-25.9311523,124.0592041 c0,44.4194946,11.1048279,80.5327759,33.3443298,108.3099365c22.210022,27.7771606,46.2655334,42.5736694,72.1966858,44.4195557 c35.0553284,2.4952393,60.5838013-27.1963501,72.226532-39.8049316c1.8660278-2.020874,3.6272278-4.0502319,5.2895813-6.0772705 c8.1235962-9.9058228,24.229248-4.2493286,24.6141357,8.5557861v0.000061 c0.0507202,1.6878662-0.197998,3.3865356-0.7418213,4.9851685 c-16.0162964,47.0839844-39.0243835,85.3338623-68.9962769,114.7495728 c-32.7192078,32.1239624-68.8030396,54.3336182-108.3103333,66.6592407 c-39.5072937,12.3255615-79.9369507,16.0172119-121.2606354,11.1047974 c-41.3825684-4.9420166-79.0145721-18.1905518-112.9541855-39.8049316 c-33.9697647-21.5845947-61.7467651-50.284668-83.3313446-86.1000977 c-21.6143856-35.7858276-32.391777-78.3892822-32.391777-127.7510376c0-58.0253296,13.5757694-105.8388672,40.728035-143.5001221 c27.1515427-37.6316528,60.7938614-68.8028564,100.9262466-93.5134583 c40.0727692-24.6807861,83.5995483-45.0448303,130.519989-61.0917053 c46.8906555-16.0470581,89.791626-31.1712036,128.6737976-45.3724365 c32.8693237-12.0050354,65.0259705-18.5995789,95.359314-46.295166c0.4229126-0.3861389,0.8417053-0.7724915,1.2564087-1.1589661 c11.9274292-11.1150818,31.3730469-3.5160522,32.4973145,12.7487488v0.000061 c0.2198486,3.1800842-0.312561,6.3881836-1.6514893,9.2810669 c-12.1710815,26.2973938-29.0445862,47.1175232-50.6206055,62.4604492 c-23.4602356,16.6723328-46.9200745,34.2376099-70.3508606,52.7557678 C394.7880249,509.0733337,374.4238281,532.5335693,357.1560059,560.9360352z" />
		</g>
		<g class="i-comp">
			<path class="comp-fill" d="M453.1631775,234.6954651c-110.8136292,117.898468-237.033432,148.8011169-375.6569824,78.140625 c-2.3881912-1.2173157-4.6386108-2.703064-7.0137024-3.9484253c-27.758007-14.554718-27.4432602-14.2520447-5.4535675-37.7938538 c33.354126-35.708252,71.4841843-64.6257935,116.0421982-85.0129242 c7.6698761-3.5093231,13.1934967-3.8258057,20.169281,2.1586456 c67.9672699,58.3080292,146.7674408,68.1454773,231.4438019,50.7723541 C438.3601074,237.8494415,444.0137024,236.6268311,453.1631775,234.6954651z" />
			<path class="comp-fill" d="M294.8936462,0.9111738c103.6603088,18.881237,164.0622253,81.7278519,171.4473877,188.4915924 c0.5643311,8.1578369-1.3188782,10.3794556-9.6218567,8.6143341 c-91.3644714-19.4232788-166.1862183-71.4849014-171.2446899-187.6308136 C285.0744934,1.2022434,287.155365-1.6845219,294.8936462,0.9111738z" />
			<path class="comp-fill" d="M420.3668823,215.9072571c-84.6297913,15.8495941-158.886261,0.9498291-219.5174713-62.1671753 c-19.0820313-19.8643341-34.0386353-42.7195969-47.0203552-66.9786453 c-3.711853-6.9363785-3.2920227-9.9213104,4.8519592-12.2832718 c31.5821228-9.1598053,63.5493011-15.3891373,96.5695343-15.0902214 c6.4619751,0.0584908,12.026825-0.1112747,14.4090271,8.7894936 c19.7998657,73.9780197,70.6213684,117.7790298,140.432251,142.7411499 c2.5137939,0.8988495,5.0123901,1.8426819,7.4955444,2.822525 C418.0654907,213.9297943,418.4383545,214.3853455,420.3668823,215.9072571z" />
		</g>
	</g>
</svg>
